<svg width="130" height="47" viewBox="0 0 130 47" fill="none" xmlns="http://www.w3.org/2000/svg">
<g id="Name">
<g id="Group">
<g id="Group_2">
<path id="h" d="M4.95672 0H0V35.7986H4.95672V22.5177C4.95672 20.2709 5.51557 18.4984 6.63326 17.2502C7.75095 16.002 9.2817 15.353 11.1769 15.353C12.8049 15.353 14.1655 15.9521 15.2589 17.1004C16.3523 18.2738 16.9112 19.7466 16.9112 21.5191V35.8236H21.8922V21.5191C21.8922 18.2238 20.9932 15.6276 19.1951 13.6804C17.3971 11.7332 15.0402 10.7596 12.1731 10.7596C11.347 10.7596 10.5209 10.8594 9.71906 11.0841C8.89294 11.3088 8.2369 11.5584 7.70235 11.833C7.16781 12.1076 6.65756 12.4072 6.1959 12.7567C5.73424 13.1062 5.41838 13.3558 5.27259 13.5056C5.1268 13.6554 5.00532 13.7552 4.95672 13.8301V0Z" fill="#F0145A"/>
</g>
</g>
<g id="Group_3">
<g id="Group_4">
<path id="Vector" d="M32.9727 0H27.8628V35.7689H32.9727V0Z" fill="white"/>
</g>
<g id="Group_5">
<path id="Vector_2" d="M63.1116 25.2935L63.3671 22.7386C63.3671 19.315 62.2429 16.4535 59.9435 14.1541C57.6441 11.8546 54.7825 10.7305 51.359 10.7305C47.9354 10.7305 44.9717 11.9568 42.5189 14.4096C40.0662 16.8623 38.8398 19.7749 38.8398 23.2496C38.8398 26.8265 40.1173 29.8924 42.6211 32.4473C45.1249 35.0022 48.1398 36.2797 51.6144 36.2797C52.943 36.2797 54.1694 36.0753 55.3957 35.7176C56.6221 35.3088 57.6441 34.9 58.3594 34.4912C59.1259 34.0313 59.8924 33.5204 60.5567 32.9583C61.2209 32.3962 61.6808 31.9874 61.8852 31.7319C62.0896 31.4764 62.2429 31.3231 62.3451 31.1698L59.0237 27.8484L58.2572 28.8193C57.7463 29.4325 56.8776 30.0457 55.6512 30.7099C54.3738 31.3742 53.0452 31.6808 51.6144 31.6808C49.6216 31.6808 47.9354 31.0676 46.5046 29.7902C45.0738 28.5127 44.2052 27.0309 43.9497 25.2935H63.1116ZM51.359 15.0738C53.2496 15.0738 54.7825 15.6359 56.06 16.709C57.2864 17.8331 58.0528 19.2128 58.3594 20.9501H44.1541C44.614 19.2128 45.4315 17.8331 46.709 16.709C47.9354 15.6359 49.5194 15.0738 51.359 15.0738Z" fill="white"/>
</g>
<g id="Group_6">
<path id="Vector_3" d="M86.943 34.2868C86.943 36.5351 86.2787 38.3747 84.8991 39.8054C83.5705 41.1851 81.8843 41.9005 79.7892 41.9005C78.8695 41.9005 77.9497 41.7472 77.081 41.4917C76.2124 41.2362 75.5481 40.9296 74.986 40.5719C74.4239 40.2142 73.9129 39.8565 73.4019 39.3967C72.9421 38.9368 72.6355 38.6302 72.4822 38.4769C72.3289 38.3236 72.2267 38.1703 72.1245 38.0681L68.8031 41.3895L69.2119 41.9005C69.4674 42.2582 69.9273 42.718 70.5404 43.229C71.1536 43.6889 71.869 44.1999 72.6866 44.7109C73.5041 45.1708 74.5261 45.5796 75.8036 45.9372C77.081 46.2949 78.4096 46.4993 79.7892 46.4993C83.2639 46.4993 86.1254 45.3241 88.5271 42.9735C90.8776 40.5719 92.0528 37.7104 92.0528 34.2357V11.2415H86.943V13.7964L86.0743 13.0299C85.5123 12.5189 84.6436 12.0079 83.4172 11.4969C82.1909 10.986 80.8623 10.7305 79.5338 10.7305C76.4168 10.7305 73.7596 11.9057 71.4602 14.3074C69.1608 16.709 68.0366 19.5705 68.0366 22.9941C68.0366 26.4177 69.1608 29.2792 71.4602 31.6808C73.7596 34.0824 76.4168 35.2577 79.5338 35.2577C80.4024 35.2577 81.22 35.1555 82.0887 34.9511C82.9062 34.6956 83.5705 34.4401 84.1326 34.1846C84.6947 33.9291 85.2057 33.6225 85.6656 33.2648C86.1254 32.9072 86.4831 32.6517 86.5853 32.5495L86.943 32.1918V34.2868ZM73.1465 22.9941C73.1465 20.8479 73.8107 19.0595 75.1904 17.5777C76.57 16.0958 78.2052 15.3293 80.0447 15.3293C81.8843 15.3293 83.5194 16.0958 84.8991 17.5777C86.2276 19.0595 86.943 20.8479 86.943 22.9941C86.943 25.1402 86.2276 26.9287 84.8991 28.4105C83.5194 29.8924 81.8843 30.6588 80.0447 30.6588C78.2052 30.6588 76.57 29.8924 75.1904 28.4105C73.8107 26.9287 73.1465 25.1402 73.1465 22.9941Z" fill="white"/>
</g>
<g id="Group_7">
<path id="Vector_4" d="M118.724 35.7687V19.9282C118.724 17.3222 117.753 15.1249 115.862 13.3876C113.972 11.5991 111.519 10.7305 108.504 10.7305C107.329 10.7305 106.154 10.8838 105.03 11.1904C103.905 11.548 102.986 11.9057 102.321 12.3145C101.657 12.7233 100.993 13.1832 100.38 13.7453C99.7664 14.2563 99.4087 14.6139 99.2043 14.8183C99.051 15.0227 98.8977 15.176 98.7955 15.3293L102.117 18.6507L102.781 17.782C103.19 17.22 103.905 16.709 104.978 16.1469C106.051 15.5848 107.227 15.3293 108.504 15.3293C109.986 15.3293 111.212 15.7892 112.183 16.6579C113.154 17.5266 113.614 18.6507 113.614 19.9282L104.672 21.4611C102.475 21.8188 100.686 22.6875 99.4598 24.0672C98.1823 25.4468 97.5181 27.1331 97.5181 29.1259C97.5181 31.0165 98.3356 32.6517 99.9708 34.0824C101.657 35.5643 103.701 36.2797 106.205 36.2797C107.073 36.2797 107.891 36.1775 108.709 35.922C109.577 35.7176 110.242 35.4621 110.804 35.2066C111.366 34.9511 111.877 34.6445 112.337 34.2868C112.796 33.9291 113.103 33.6736 113.307 33.5715C113.461 33.4182 113.563 33.2649 113.614 33.2138V35.7687H118.724ZM106.971 31.6808C105.643 31.6808 104.57 31.3742 103.803 30.761C102.986 30.1479 102.628 29.4325 102.628 28.6149C102.628 27.7462 102.883 26.9798 103.445 26.4177C104.008 25.8556 104.774 25.4468 105.694 25.2935L113.614 24.0161V24.527C113.614 26.8265 113.052 28.5638 111.877 29.8413C110.701 31.0676 109.066 31.6808 106.971 31.6808Z" fill="white"/>
</g>
<g id="Group_8">
<path id="Vector_5" d="M130 0H124.89V35.7689H130V0Z" fill="white"/>
</g>
</g>
</g>
</svg>
